<?xml version="1.0" encoding="UTF-8"?>
<svg width="12px" height="12px" viewBox="0 0 12 12" version="1.1" xmlns="http://www.w3.org/2000/svg" xmlns:xlink="http://www.w3.org/1999/xlink">
    <title>Group 8 Copy</title>
    <g id="页面-1" stroke="none" stroke-width="1" fill="none" fill-rule="evenodd">
        <g id="1688首页_KAERU插件_下载所有SKU按钮点击" transform="translate(-1371.000000, -201.000000)">
            <g id="编组" transform="translate(1060.000000, 40.000000)">
                <g id="编组-17" transform="translate(0.000000, 132.000000)">
                    <g id="编组-23" transform="translate(317.000000, 35.000000) rotate(-90.000000) translate(-317.000000, -35.000000) translate(309.000000, 27.000000)">
                        <polygon id="Clip-2" points="0 0 16 0 16 16 0 16"></polygon>
                        <path d="M12.875,2.5 C13.454899,2.5 13.9323199,2.93876095 13.9933987,3.50241886 L14,3.625 L14,10.375 C14,10.954899 13.5612391,11.4323199 12.9975811,11.4933987 L12.875,11.5 L11,11.501 L11,12.375 C11,12.954899 10.5612391,13.4323199 9.99758114,13.4933987 L9.875,13.5 L3.125,13.5 C2.54510101,13.5 2.06768014,13.0612391 2.00660135,12.4975811 L2,12.375 L2,5.625 C2,5.04510101 2.43876095,4.56768014 3.00241886,4.50660135 L3.125,4.5 L4.999,4.5 L5,3.625 C5,3.04510101 5.43876095,2.56768014 6.00241886,2.50660135 L6.125,2.5 L12.875,2.5 Z M10,5.5 L3,5.5 L3,12.5 L10,12.5 L10,5.5 Z M13,3.5 L6,3.5 L6,4.5 L9.875,4.5 C10.454899,4.5 10.9323199,4.93876095 10.9933987,5.50241886 L11,5.625 L11,10.5 L13,10.5 L13,3.5 Z" id="形状结合" fill="#007AFF" transform="translate(8.000000, 8.000000) rotate(90.000000) translate(-8.000000, -8.000000) "></path>
                    </g>
                </g>
            </g>
        </g>
    </g>
</svg>