<svg t="1682564316640" class="icon" viewBox="0 0 1024 1024" version="1.1" xmlns="http://www.w3.org/2000/svg" p-id="3994" width="200" height="200"><path d="M862.021818 276.712727a46.545455 46.545455 0 0 1 0 65.815273l-11.636363 11.543273 0.046545 0.093091-36.864 36.864V390.981818l-10.519273 10.519273a46.545455 46.545455 0 0 1-65.815272 0l-26.670546-26.624-124.834909 124.741818 131.723636 131.723636a65.163636 65.163636 0 0 1-30.952727 109.521455l-434.315636 103.330909a65.163636 65.163636 0 0 1-77.917091-80.849454L290.909091 342.341818a65.163636 65.163636 0 0 1 108.916364-28.718545l134.888727 134.981818 175.941818-175.848727 59.578182 59.531636 22.621091-22.667636-96.442182-96.395637 51.060364-51.060363 114.501818 114.501818z m-198.423273 396.567273l-125.719272-125.719273-81.082182 81.082182-51.060364-51.013818 81.082182-81.128727L361.332364 370.967273l-115.153455 405.317818 417.419636-103.051636z" p-id="3995"></path></svg>