<svg t="1679552007659" class="icon" viewBox="0 0 1024 1024" version="1.1" xmlns="http://www.w3.org/2000/svg" p-id="3683" width="128" height="128"><path d="M451.072 66.275556V0H572.928v66.275556C768.056889 96.426667 920.405333 252.984889 938.723556 451.697778v391.566222H85.276444V451.697778c18.318222-198.769778 170.666667-361.415111 365.795556-385.479111zM329.102222 1024h365.795556v-120.490667h-365.795556V1024z" p-id="3684"></path><path d="M800.256 442.709333c1.706667 6.883556 3.697778 16.440889 6.144 28.558223 2.389333 12.117333 4.721778 24.405333 6.940444 36.807111l62.236445-11.150223c-2.275556-14.336-4.664889-27.306667-7.168-38.968888a391.224889 391.224889 0 0 0-7.338667-29.354667l-60.814222 14.108444zM627.768889 147.456L602.510222 205.198222c47.047111 18.944 86.357333 45.681778 117.930667 80.213334 31.630222 34.588444 55.580444 77.084444 71.964444 127.431111l59.562667-13.994667c-12.629333-49.208889-37.489778-96.711111-74.581333-142.449778-37.091556-45.795556-86.983111-82.090667-149.617778-108.942222z" p-id="3685"></path></svg>