<?xml version="1.0" encoding="UTF-8"?>
<svg width="14px" height="14px" viewBox="0 0 14 14" version="1.1" xmlns="http://www.w3.org/2000/svg" xmlns:xlink="http://www.w3.org/1999/xlink">
    <title>icon_doubt</title>
    <g id="页面-1" stroke="none" stroke-width="1" fill="none" fill-rule="evenodd">
        <g id="插件会员样式-非会员" transform="translate(-135.000000, -174.000000)" fill="#FFFFFF" fill-rule="nonzero">
            <g id="3.1-疑问" transform="translate(134.000000, 173.000000)">
                <rect id="矩形" opacity="0" x="0" y="0" width="16" height="16"></rect>
                <path d="M12.6305805,3.333324 C10.0570293,0.759740891 5.8699002,0.759740891 3.29724447,3.333324 C0.723661359,5.90597973 0.723661359,10.0930769 3.29724447,12.66666 C5.8699002,15.2402431 10.0570293,15.2402431 12.6305805,12.66666 C15.2041796,10.0930769 15.2041796,5.90597975 12.6305805,3.333324 Z M11.9607786,11.9963625 C9.75648111,14.2006919 6.17000073,14.2006919 3.96659864,11.9963625 C1.76225319,9.79296038 1.76225319,6.20697567 3.96659864,4.0026622 C6.17000073,1.79926011 9.75648109,1.79833273 11.9607786,4.0026622 C14.1641647,6.20606428 14.1641647,9.79297636 11.9607786,11.9963625 Z M7.82323184,10.7193883 C7.5039763,10.7203476 7.24412048,10.9802034 7.24412048,11.2990113 C7.24412048,11.6186825 7.5039763,11.8785543 7.82369553,11.8785543 C8.14295108,11.8785543 8.40285486,11.6186825 8.40285486,11.2980679 C8.40283888,10.9792601 8.14293509,10.7193883 7.82323184,10.7193883 Z M7.90362534,4.14288713 C6.77296792,4.14288713 5.77409317,4.793518 5.42028505,5.76294073 C5.33802083,5.98963503 5.26694902,6.36638759 5.33802083,6.68095831 C5.38565253,6.89689191 5.61472922,7.03993092 5.82740103,6.99132389 C6.04798747,6.94177348 6.18682134,6.72209842 6.13728692,6.50240738 C6.11296741,6.38974777 6.13634356,6.18783666 6.18963542,6.0424792 C6.38547064,5.50588302 6.99078823,4.96367463 7.90225027,4.96367463 C8.97539467,4.96367463 9.72467866,5.51197488 9.72467866,6.29766617 C9.72467866,6.88474014 9.36057352,7.09698023 8.71646622,7.42320706 C8.13359741,7.71769541 7.40768956,8.08322358 7.40768956,9.00586202 L7.40768959,9.84345414 C7.40768959,10.0696848 7.59182075,10.2538479 7.81713998,10.2538479 C8.04290692,10.2538479 8.22707005,10.0696848 8.22707005,9.84345414 L8.22707005,9.00584603 C8.22801341,8.60576528 8.52294944,8.43839077 9.08711094,8.15421544 C9.73727813,7.82658158 10.5468253,7.41944961 10.5468253,6.29765019 C10.5468253,5.02910227 9.45965836,4.14288713 7.90362534,4.14288713 Z" id="形状"></path>
            </g>
        </g>
    </g>
</svg>